<svg xmlns="http://www.w3.org/2000/svg" width="1em" height="1em" fill="none" viewBox="0 0 58 51" class="lg:hidden w-[2.9375rem] h-auto text-current"><path fill="#70242b" d="M53.84 17.855v-8.02l-8.256-6.46-8.255 6.46-8.256-6.46-8.255 6.46-8.255-6.46-8.256 6.46v8.02L9.69 13.41v2.803l-5.382 4.212v8.02l5.382-4.443v2.802l-5.382 4.212v8.02l5.382-4.443v13.033h5.746V34.594l5.382 4.444 5.382-4.444v13.033h5.745V34.594l5.382 4.444 5.382-4.444v13.033h5.745V34.594l5.382 4.444v-8.02l-5.382-4.213v-2.802l5.382 4.443v-8.02l-5.382-4.212V13.41zM42.711 13.41v2.803l-5.382 4.212-5.382-4.212V13.41l5.382 4.444zm-16.51 0v2.803l-5.382 4.212-5.382-4.212V13.41l5.382 4.444zM20.82 31.016l-5.382-4.212V24l5.382 4.444L26.2 24v2.803zm16.51 0-5.382-4.212V24l5.382 4.444L42.712 24v2.803z"></path><path fill="#70242b" d="M51.748 51H5.935C2.93 51 .482 48.557.482 45.556V5.445C.482 2.443 2.93 0 5.935 0h45.813C54.754 0 57.2 2.443 57.2 5.445v40.109C57.202 48.557 54.755 51 51.748 51M5.935 1.653a3.8 3.8 0 0 0-3.797 3.792v40.109a3.8 3.8 0 0 0 3.797 3.792h45.813a3.8 3.8 0 0 0 3.797-3.792V5.444a3.8 3.8 0 0 0-3.797-3.791z"></path></svg>